<svg xmlns="http://www.w3.org/2000/svg" width="24" height="24" xmlns:v="https://vecta.io/nano"><path fill="#fff" d="M12 5.5a3.5 3.5 0 1 1 0 7 3.5 3.5 0 1 1 0-7M5 8a2.95 2.95 0 0 1 1.53.42c-.15 1.43.27 2.85 1.13 3.96C7.16 13.34 6.16 14 5 14a3 3 0 1 1 0-6m14 0a3 3 0 1 1 0 6c-1.16 0-2.16-.66-2.66-1.62.86-1.11 1.28-2.53 1.13-3.96A2.95 2.95 0 0 1 19 8M5.5 18.25c0-2.07 2.91-3.75 6.5-3.75s6.5 1.68 6.5 3.75V20h-13v-1.75M0 20v-1.5c0-1.39 1.89-2.56 4.45-2.9-.59.68-.95 1.62-.95 2.65V20H0m24 0h-3.5v-1.75c0-1.03-.36-1.97-.95-2.65 2.56.34 4.45 1.51 4.45 2.9V20z"/></svg>